<svg width="32" height="32" viewBox="0 0 32 32" fill="none" xmlns="http://www.w3.org/2000/svg">
<g clip-path="url(#clip0_1241_1012)">
<rect width="32" height="32" rx="16" fill="#0D0D0D"/>
<circle cx="15.2001" cy="12.5328" r="8.4" fill="#F5F5F5"/>
<path d="M18.7043 18.0561C18.0258 18.4566 17.3426 18.6732 16.6547 18.7059C15.9687 18.7309 15.3292 18.5818 14.7362 18.2586C14.1481 17.9326 13.66 17.4409 13.272 16.7835C12.9102 16.1706 12.7187 15.5272 12.6973 14.8533C12.6759 14.1795 12.8559 13.5334 13.2372 12.9152L13.5234 13.4661C12.9144 13.4456 12.3656 13.2963 11.877 13.0181C11.3903 12.7322 10.9924 12.3272 10.6832 11.8033C10.3243 11.1953 10.1508 10.5879 10.1625 9.98115C10.1743 9.3744 10.3493 8.80792 10.6875 8.28171C11.0306 7.75267 11.515 7.30354 12.1405 6.93434C12.7661 6.56515 13.391 6.35965 14.0151 6.31786C14.6393 6.27607 15.2198 6.39667 15.7566 6.67966C16.2935 6.96265 16.7413 7.40815 17.1001 8.01614C17.4094 8.5401 17.5749 9.0789 17.5967 9.63253C17.6185 10.1862 17.4806 10.7441 17.183 11.3062L16.855 10.8C17.567 10.7531 18.2166 10.9028 18.8039 11.2494C19.3883 11.5909 19.8614 12.0682 20.2231 12.6811C20.6111 13.3385 20.8032 14.0049 20.7995 14.6802C20.7958 15.3556 20.6148 15.9889 20.2566 16.5802C19.8954 17.1666 19.378 17.6585 18.7043 18.0561ZM17.8335 16.5807C18.3917 16.2512 18.7522 15.8285 18.9149 15.3127C19.0746 14.7918 18.9766 14.2299 18.6207 13.6268C18.2648 13.0238 17.8202 12.6663 17.287 12.5545C16.7558 12.4348 16.2086 12.5411 15.6456 12.8734C15.0826 13.2057 14.7226 13.6347 14.5658 14.1605C14.4108 14.6785 14.5113 15.239 14.8672 15.842C15.2231 16.4451 15.6676 16.8025 16.2008 16.9144C16.7311 17.0213 17.2753 16.9101 17.8335 16.5807ZM14.7704 11.3905C15.2468 11.1093 15.5603 10.761 15.7109 10.3456C15.8634 9.92234 15.7923 9.4611 15.4977 8.96185C15.2031 8.46261 14.8336 8.17745 14.3894 8.10638C13.9471 8.02752 13.4877 8.12868 13.0113 8.40984C12.5349 8.691 12.2219 9.04566 12.0724 9.47384C11.9199 9.89707 11.991 10.3583 12.2856 10.8575C12.5802 11.3568 12.9497 11.642 13.3939 11.713C13.8352 11.7792 14.294 11.6716 14.7704 11.3905Z" fill="#1E1E1E"/>
</g>
<defs>
<clipPath id="clip0_1241_1012">
<rect width="32" height="32" fill="white"/>
</clipPath>
</defs>
</svg>
