<svg width="32" height="32" viewBox="0 0 32 32" fill="none" xmlns="http://www.w3.org/2000/svg">
<g clip-path="url(#clip0_1210_361)">
<rect width="32" height="32" fill="#F5F5F5"/>
<path fill-rule="evenodd" clip-rule="evenodd" d="M16 32C24.8366 32 32 24.8366 32 16C32 7.16344 24.8366 -2.677e-07 16 0C7.16344 2.677e-07 0 7.16344 0 16C0 24.8366 7.16344 32 16 32ZM18.2834 27.546C19.5618 27.4851 20.8315 27.0826 22.0924 26.3384C23.3444 25.5995 24.306 24.6852 24.9772 23.5955C25.643 22.4966 25.9793 21.3196 25.9862 20.0646C25.9931 18.8095 25.636 17.5711 24.915 16.3494C24.2427 15.2103 23.3636 14.3234 22.2775 13.6886C21.4747 13.2149 20.6092 12.939 19.681 12.861C19.9447 12.1314 20.0624 11.4057 20.0339 10.6838C19.9934 9.65495 19.6859 8.65365 19.1112 7.67991C18.4443 6.55001 17.6121 5.7221 16.6144 5.19619C15.6167 4.67027 14.5379 4.44614 13.378 4.52381C12.218 4.60147 11.0568 4.98337 9.8942 5.66949C8.73162 6.35562 7.83153 7.19027 7.19395 8.17346C6.56531 9.15137 6.24008 10.2041 6.21826 11.3317C6.19644 12.4593 6.51895 13.5881 7.18579 14.718C7.76046 15.6917 8.50002 16.4443 9.40447 16.9757C10.0326 17.3333 10.7142 17.5763 11.4494 17.7047C11.0732 18.5705 10.8997 19.4644 10.9289 20.3862C10.9687 21.6385 11.3246 22.8342 11.9969 23.9733C12.718 25.195 13.625 26.1088 14.7181 26.7147C15.8201 27.3153 17.0086 27.5923 18.2834 27.546ZM22.4837 21.2399C22.1814 22.1986 21.5115 22.9841 20.4741 23.5963C19.4367 24.2085 18.4253 24.4153 17.4399 24.2166C16.449 24.0087 15.6229 23.3444 14.9615 22.2236C14.3001 21.1029 14.1133 20.0613 14.4013 19.0986C14.6928 18.1215 15.3617 17.3242 16.4081 16.7067C17.4544 16.0892 18.4712 15.8916 19.4585 16.114C20.4494 16.3219 21.2756 16.9862 21.937 18.1069C22.5984 19.2276 22.7806 20.2719 22.4837 21.2399ZM16.5294 12.009C16.2496 12.781 15.667 13.4283 14.7816 13.9508C13.8963 14.4733 13.0435 14.6731 12.2234 14.5503C11.3979 14.4182 10.7113 13.8882 10.1638 12.9604C9.61622 12.0326 9.48413 11.1755 9.76752 10.3889C10.0455 9.59319 10.6271 8.93408 11.5125 8.41157C12.3978 7.88906 13.2515 7.70107 14.0735 7.84762C14.8991 7.9797 15.5856 8.50964 16.1332 9.43744C16.6808 10.3652 16.8128 11.2224 16.5294 12.009Z" fill="#1E1E1E"/>
</g>
<defs>
<clipPath id="clip0_1210_361">
<rect width="32" height="32" fill="white"/>
</clipPath>
</defs>
</svg>
