<svg width="1045" height="346" viewBox="0 0 1045 346" fill="none" xmlns="http://www.w3.org/2000/svg">
<rect width="180" height="180" rx="90" fill="#C5271E"/>
<circle cx="77.25" cy="90" r="47.25" fill="#F5F5F5"/>
<path d="M66.4527 117.215C60.881 115.28 56.5555 112.394 53.4763 108.558C50.4086 104.688 48.5713 100.236 47.9645 95.2018C47.391 90.1794 48.0321 84.9433 49.8879 79.4935C51.8451 73.9667 54.633 69.439 58.2518 65.9102C61.9154 62.3596 66.1554 60.0562 70.9717 58.9998C75.7995 57.91 80.9493 58.3155 86.4208 60.2162C92.5597 62.3487 97.2088 65.7022 100.368 70.2769C103.572 74.8298 104.898 80.0013 104.345 85.7914L91.204 84.8721C91.2781 81.645 90.509 78.8541 88.8967 76.4993C87.296 74.1112 85.111 72.4361 82.3419 71.4742C79.2057 70.3848 76.3593 70.2373 73.8026 71.0317C71.2575 71.7927 69.0492 73.3064 67.1777 75.5726C65.3061 77.8388 63.7967 80.6235 62.6493 83.9264C60.8646 89.0644 60.5727 93.618 61.7738 97.5872C62.9749 101.556 65.8441 104.329 70.3815 105.905C73.5844 107.018 76.3583 107.159 78.7032 106.328C81.0815 105.509 83.2187 103.877 85.1148 101.433L96.4698 108.462C92.8893 113.387 88.4982 116.61 83.2963 118.131C78.106 119.618 72.4914 119.313 66.4527 117.215Z" fill="#1E1E1E"/>
<rect x="192" width="180" height="180" rx="90" fill="#E6C507"/>
<circle cx="291.75" cy="106.5" r="47.25" fill="#F5F5F5"/>
<path d="M291.605 135.89C287.794 136.582 284.535 136.518 281.827 135.698C279.12 134.877 276.857 133.615 275.038 131.912C273.22 130.208 271.76 128.308 270.657 126.212C269.555 124.116 268.714 122.104 268.134 120.175C267.58 118.209 267.191 116.607 266.966 115.369L261.75 86.6455L273.373 84.5348L277.871 109.304C278.159 110.892 278.596 112.666 279.182 114.627C279.762 116.555 280.616 118.368 281.744 120.066C282.898 121.726 284.376 122.999 286.177 123.886C288.01 124.767 290.292 124.959 293.023 124.463C294.484 124.198 295.886 123.697 297.228 122.962C298.571 122.226 299.71 121.182 300.645 119.832C301.607 118.443 302.252 116.669 302.582 114.51C302.912 112.351 302.794 109.715 302.229 106.603L309.568 108.272C310.364 112.654 310.227 116.779 309.158 120.648C308.121 124.51 306.144 127.805 303.228 130.532C300.306 133.228 296.432 135.014 291.605 135.89ZM308.151 131.36L305.254 115.403L303.872 115.654L297.428 80.1665L308.955 78.0731L318.297 129.518L308.151 131.36Z" fill="#1E1E1E"/>
<rect x="384" width="180" height="180" rx="90" fill="#193E83"/>
<circle cx="469.5" cy="78" r="47.25" fill="#F5F5F5"/>
<path d="M445.789 100.247L463.902 46.7476L474.453 50.3198L470.042 63.3479L469.325 61.2276C470.589 59.6679 472.012 58.346 473.594 57.2619C475.219 56.1559 476.971 55.3868 478.847 54.9546C480.47 54.5102 482.158 54.3086 483.911 54.3499C485.708 54.3694 487.465 54.6147 489.183 55.0858C490.912 55.5239 492.524 56.1434 494.02 56.9443L490.246 68.09C488.818 67.091 487.035 66.3218 484.899 65.7826C482.795 65.2545 480.75 65.2063 478.764 65.638C476.811 65.9707 475.071 66.6516 473.545 67.6808C472.051 68.7213 470.755 70.0493 469.656 71.6649C468.568 73.2475 467.677 75.0625 466.984 77.11L457.777 104.306L445.789 100.247Z" fill="#1E1E1E"/>
<rect x="576" width="180" height="180" rx="90" fill="#0D0D0D"/>
<circle cx="661.5" cy="70.5" r="47.25" fill="#F5F5F5"/>
<path d="M681.212 101.569C677.395 103.822 673.552 105.04 669.683 105.224C665.824 105.365 662.227 104.526 658.891 102.708C655.583 100.874 652.837 98.1084 650.655 94.4104C648.62 90.9627 647.543 87.3436 647.422 83.5532C647.302 79.7628 648.314 76.1288 650.459 72.6512L652.069 75.7499C648.643 75.6347 645.556 74.7948 642.808 73.2302C640.071 71.6218 637.832 69.3439 636.093 66.3967C634.074 62.9767 633.098 59.5603 633.164 56.1473C633.23 52.7343 634.215 49.5478 636.117 46.5879C638.047 43.612 640.772 41.0857 644.29 39.009C647.809 36.9322 651.324 35.7763 654.835 35.5412C658.346 35.3062 661.611 35.9846 664.631 37.5764C667.651 39.1682 670.17 41.6741 672.188 45.0941C673.928 48.0413 674.859 51.0721 674.981 54.1863C675.104 57.3005 674.328 60.4387 672.654 63.6009L670.81 60.7534C674.814 60.4893 678.468 61.3318 681.772 63.2809C685.059 65.2023 687.72 67.8868 689.755 71.3346C691.937 75.0326 693.018 78.7809 692.997 82.5796C692.976 86.3783 691.958 89.9408 689.943 93.2669C687.912 96.5652 685.001 99.3326 681.212 101.569ZM676.314 93.2695C679.453 91.4164 681.481 89.0389 682.396 86.137C683.295 83.2073 682.743 80.0464 680.741 76.6543C678.739 73.2621 676.239 71.2514 673.24 70.6221C670.251 69.949 667.173 70.547 664.006 72.4161C660.839 74.2852 658.815 76.6984 657.933 79.6559C657.061 82.5696 657.626 85.7226 659.628 89.1147C661.63 92.5069 664.131 94.5176 667.13 95.1469C670.112 95.7484 673.174 95.1226 676.314 93.2695ZM659.084 64.0747C661.763 62.4932 663.527 60.534 664.374 58.1971C665.232 55.8164 664.832 53.222 663.175 50.4137C661.517 47.6055 659.439 46.0015 656.94 45.6017C654.452 45.1581 651.868 45.7271 649.189 47.3086C646.509 48.8901 644.748 50.8851 643.907 53.2936C643.049 55.6743 643.449 58.2688 645.106 61.077C646.764 63.8853 648.842 65.4893 651.341 65.8891C653.823 66.261 656.404 65.6563 659.084 64.0747Z" fill="#1E1E1E"/>
<rect x="768" width="180" height="180" rx="90" fill="#860001"/>
<circle cx="845.25" cy="97.5" r="47.25" fill="#F5F5F5"/>
<path d="M831.587 124.909C827.458 123.802 824.134 121.798 821.615 118.895C819.096 115.993 817.47 112.528 816.737 108.5C816.005 104.472 816.24 100.214 817.443 95.725C818.661 91.1804 820.59 87.3611 823.231 84.267C825.907 81.1527 829.085 78.9898 832.766 77.7782C836.454 76.5389 840.418 76.4873 844.658 77.6233C848.925 78.7668 852.221 80.7638 854.546 83.6143C856.907 86.4445 858.356 89.8475 858.894 93.8231C859.433 97.7988 859.097 102.045 857.887 106.562C856.691 111.023 854.863 114.855 852.401 118.056C849.947 121.23 846.959 123.459 843.437 124.743C839.915 126.026 835.965 126.082 831.587 124.909ZM835.53 116.342C838.218 117.063 840.543 117.032 842.505 116.251C844.501 115.449 846.171 114.04 847.513 112.024C848.883 110.015 849.958 107.556 850.737 104.646C851.524 101.709 851.823 99.0417 851.634 96.6446C851.48 94.2273 850.762 92.1936 849.482 90.5437C848.209 88.8661 846.298 87.6857 843.748 87.0026C841.06 86.2824 838.665 86.3534 836.563 87.2157C834.468 88.0504 832.705 89.4786 831.272 91.5004C829.846 93.4945 828.77 95.8494 828.042 98.5651C827.307 101.308 827.041 103.91 827.243 106.37C827.48 108.81 828.27 110.907 829.611 112.662C830.952 114.418 832.925 115.644 835.53 116.342ZM844.723 127.092L853.165 95.5848L851.918 95.2506L859.514 66.9025L869.615 69.609L853.577 129.464L844.723 127.092Z" fill="#1E1E1E"/>
<rect x="289" y="166" width="180" height="180" rx="90" fill="#C5271E"/>
<circle cx="390.25" cy="247.75" r="47.25" fill="#F5F5F5"/>
<path d="M397.054 274.909C391.349 276.406 386.149 276.419 381.454 274.949C376.751 273.444 372.745 270.771 369.437 266.928C366.162 263.077 363.778 258.372 362.282 252.812C360.829 247.132 360.622 241.819 361.661 236.872C362.725 231.883 364.963 227.608 368.374 224.047C371.776 220.453 376.278 217.92 381.881 216.45C388.167 214.801 393.896 214.996 399.068 217.035C404.266 219.031 408.248 222.587 411.014 227.703L399.589 234.261C397.853 231.539 395.659 229.65 393.009 228.593C390.349 227.502 387.601 227.328 384.766 228.072C381.554 228.914 379.109 230.378 377.428 232.462C375.738 234.512 374.748 236.999 374.456 239.924C374.165 242.848 374.462 246.002 375.35 249.384C376.73 254.645 379.025 258.589 382.233 261.216C385.442 263.843 389.369 264.547 394.016 263.328C397.295 262.467 399.677 261.039 401.162 259.043C402.681 257.038 403.546 254.492 403.759 251.406L417.104 250.917C416.875 257.002 415.024 262.125 411.552 266.286C408.07 270.412 403.237 273.287 397.054 274.909Z" fill="#1E1E1E"/>
<rect x="481" y="166" width="180" height="180" rx="90" fill="#522280"/>
<circle cx="548.25" cy="256.25" r="47.25" fill="#F5F5F5"/>
<path d="M536.806 289.837L544.771 220.543L556.693 221.913L548.728 291.207L536.806 289.837Z" fill="#1E1E1E"/>
<rect x="673" y="166" width="180" height="180" rx="90" fill="#E6C507"/>
<circle cx="781.25" cy="247.25" r="47.25" fill="#F5F5F5"/>
<path d="M781.044 275.509C777.393 276.173 774.27 276.111 771.675 275.325C769.081 274.539 766.912 273.329 765.17 271.697C763.427 270.065 762.028 268.244 760.972 266.236C759.916 264.227 759.11 262.299 758.554 260.451C758.023 258.567 757.65 257.032 757.435 255.845L752.437 228.322L763.574 226.299L767.884 250.034C768.16 251.556 768.579 253.256 769.14 255.134C769.696 256.982 770.514 258.719 771.595 260.346C772.701 261.937 774.117 263.157 775.843 264.007C777.6 264.851 779.786 265.035 782.403 264.56C783.803 264.306 785.146 263.826 786.433 263.121C787.719 262.416 788.811 261.416 789.707 260.122C790.628 258.791 791.247 257.092 791.563 255.022C791.879 252.953 791.766 250.428 791.224 247.446L798.257 249.045C799.02 253.244 798.889 257.197 797.864 260.903C796.871 264.604 794.976 267.762 792.182 270.375C789.382 272.958 785.669 274.67 781.044 275.509ZM796.9 271.169L794.123 255.878L792.799 256.118L786.624 222.113L797.67 220.107L806.622 269.403L796.9 271.169Z" fill="#1E1E1E"/>
<rect x="865" y="166" width="180" height="180" rx="90" fill="#FC881A"/>
<circle cx="942.25" cy="263.5" r="47.25" fill="#F5F5F5"/>
<path d="M939.613 296.543C935.022 295.702 931.371 293.907 928.661 291.158C925.952 288.408 924.156 285.016 923.274 280.98C922.397 276.915 922.387 272.544 923.244 267.865C924.112 263.129 925.674 259.03 927.93 255.57C930.186 252.109 933.022 249.58 936.438 247.984C939.888 246.363 943.851 245.963 948.326 246.783C952.771 247.598 956.422 249.393 959.277 252.169C962.166 254.921 964.168 258.336 965.283 262.414C966.403 266.464 966.526 270.871 965.653 275.637C964.791 280.344 963.13 284.409 960.67 287.833C958.211 291.257 955.169 293.763 951.544 295.351C947.919 296.939 943.942 297.336 939.613 296.543ZM917.144 291.074L928.646 228.311L939.237 230.251L933.79 259.977L932.482 259.737L926.428 292.775L917.144 291.074ZM939.725 286.833C942.457 287.333 944.834 287.063 946.856 286.022C948.879 284.982 950.525 283.376 951.794 281.206C953.097 279.012 954.012 276.477 954.539 273.6C955.061 270.752 955.099 268.086 954.653 265.602C954.212 263.089 953.202 260.981 951.622 259.28C950.047 257.55 947.85 256.427 945.031 255.91C942.358 255.42 940.059 255.675 938.134 256.674C936.215 257.643 934.635 259.216 933.395 261.391C932.19 263.543 931.305 266.159 930.741 269.239C930.182 272.29 930.082 275.05 930.44 277.518C930.828 279.992 931.759 282.039 933.234 283.661C934.743 285.259 936.907 286.316 939.725 286.833Z" fill="#1E1E1E"/>
</svg>
