<svg width="329" height="82" viewBox="0 0 329 82" fill="none" xmlns="http://www.w3.org/2000/svg">
<path d="M71.675 81V46.44H78.491V54.856L77.659 53.768C78.0857 52.616 78.651 51.5706 79.355 50.632C80.0804 49.672 80.9444 48.8826 81.947 48.264C82.8004 47.688 83.739 47.24 84.763 46.92C85.8084 46.5786 86.875 46.376 87.963 46.312C89.051 46.2266 90.107 46.2693 91.131 46.44V53.64C90.107 53.3413 88.923 53.2453 87.579 53.352C86.2564 53.4586 85.0617 53.832 83.995 54.472C82.9284 55.048 82.0537 55.784 81.371 56.68C80.7097 57.576 80.219 58.6 79.899 59.752C79.579 60.8826 79.419 62.1093 79.419 63.432V81H71.675Z" fill="#1E1E1E"/>
<path d="M48.4125 81.9919C45.8525 81.9919 43.7405 81.5653 42.0765 80.7119C40.4125 79.8586 39.0898 78.7706 38.1085 77.4479C37.1272 76.1253 36.4018 74.7173 35.9325 73.2239C35.4632 71.7306 35.1538 70.3226 35.0045 68.9999C34.8765 67.6559 34.8125 66.5679 34.8125 65.7359V46.4399H42.6205V63.0799C42.6205 64.1466 42.6952 65.3519 42.8445 66.6959C42.9938 68.0186 43.3352 69.2986 43.8685 70.5359C44.4232 71.7519 45.2338 72.7546 46.3005 73.5439C47.3885 74.3333 48.8498 74.7279 50.6845 74.7279C51.6658 74.7279 52.6365 74.5679 53.5965 74.2479C54.5565 73.9279 55.4205 73.3839 56.1885 72.6159C56.9778 71.8266 57.6072 70.7493 58.0765 69.3839C58.5458 68.0186 58.7805 66.2906 58.7805 64.1999L63.3565 66.1519C63.3565 69.0959 62.7805 71.7626 61.6285 74.1519C60.4978 76.5413 58.8232 78.4506 56.6045 79.8799C54.3858 81.2879 51.6552 81.9919 48.4125 81.9919ZM59.7085 80.9999V70.2799H58.7805V46.4399H66.5245V80.9999H59.7085Z" fill="#1E1E1E"/>
<path d="M17.4881 81.96C13.9254 81.96 10.8854 81.1706 8.36806 79.592C5.85073 77.992 3.92006 75.816 2.57606 73.064C1.25339 70.312 0.581392 67.1973 0.560059 63.72C0.581392 60.1786 1.27473 57.0426 2.64006 54.312C4.02673 51.56 5.98939 49.4053 8.52806 47.848C11.0667 46.2693 14.0854 45.48 17.5841 45.48C21.5094 45.48 24.8267 46.472 27.5361 48.456C30.2667 50.4186 32.0481 53.1066 32.8801 56.52L25.2001 58.6C24.6027 56.744 23.6107 55.304 22.2241 54.28C20.8374 53.2346 19.2587 52.712 17.4881 52.712C15.4827 52.712 13.8294 53.192 12.5281 54.152C11.2267 55.0906 10.2667 56.392 9.64806 58.056C9.02939 59.72 8.72006 61.608 8.72006 63.72C8.72006 67.0053 9.45606 69.6613 10.9281 71.688C12.4001 73.7146 14.5867 74.728 17.4881 74.728C19.5361 74.728 21.1467 74.2586 22.3201 73.32C23.5147 72.3813 24.4107 71.0266 25.0081 69.256L32.8801 71.016C31.8134 74.536 29.9467 77.2453 27.2801 79.144C24.6134 81.0213 21.3494 81.96 17.4881 81.96Z" fill="#1E1E1E"/>
<path d="M158.823 32.8229C158.823 50.496 144.496 64.8229 126.823 64.8229C109.15 64.8229 94.8228 50.496 94.8228 32.8229C94.8228 15.1498 109.15 0.822876 126.823 0.822875C144.496 0.822874 158.823 15.1498 158.823 32.8229Z" fill="#1E1E1E"/>
<path d="M139.008 53.4996C136.486 54.988 133.946 55.793 131.39 55.9148C128.84 56.0076 126.463 55.4534 124.259 54.2522C122.073 53.0405 120.259 51.2129 118.817 48.7694C117.472 46.4912 116.76 44.0999 116.681 41.5953C116.601 39.0907 117.27 36.6894 118.687 34.3916L119.751 36.4391C117.487 36.363 115.448 35.808 113.632 34.7742C111.823 33.7114 110.344 32.2063 109.194 30.2588C107.861 27.999 107.216 25.7415 107.259 23.4863C107.303 21.2311 107.953 19.1256 109.211 17.1698C110.486 15.2034 112.286 13.5341 114.611 12.1619C116.936 10.7896 119.259 10.0258 121.579 9.87049C123.899 9.71516 126.056 10.1634 128.052 11.2152C130.047 12.2671 131.711 13.9229 133.045 16.1827C134.194 18.1302 134.81 20.1328 134.891 22.1906C134.972 24.2483 134.459 26.322 133.353 28.4115L132.134 26.5299C134.78 26.3554 137.195 26.9121 139.378 28.2C141.55 29.4696 143.308 31.2434 144.653 33.5216C146.095 35.9651 146.809 38.4419 146.795 40.952C146.781 43.4621 146.109 45.816 144.777 48.0138C143.435 50.1932 141.512 52.0218 139.008 53.4996ZM135.771 48.0155C137.846 46.791 139.186 45.2201 139.79 43.3026C140.384 41.3667 140.02 39.2781 138.697 37.0367C137.374 34.7953 135.722 33.4666 133.74 33.0508C131.765 32.6061 129.732 33.0012 127.639 34.2362C125.546 35.4713 124.208 37.0659 123.625 39.0201C123.049 40.9454 123.423 43.0287 124.746 45.2702C126.069 47.5116 127.721 48.8402 129.703 49.256C131.673 49.6535 133.696 49.24 135.771 48.0155ZM124.386 28.7245C126.157 27.6795 127.322 26.3849 127.882 24.8408C128.448 23.2677 128.184 21.5534 127.089 19.6978C125.994 17.8422 124.621 16.7823 122.97 16.5181C121.326 16.225 119.618 16.601 117.848 17.646C116.077 18.691 114.914 20.0093 114.358 21.6007C113.791 23.1738 114.055 24.8881 115.15 26.7437C116.245 28.5993 117.619 29.6592 119.27 29.9234C120.91 30.1692 122.615 29.7695 124.386 28.7245Z" fill="white"/>
<path d="M171.336 81.96C168.157 81.96 165.384 81.16 163.016 79.56C160.648 77.96 158.813 75.784 157.512 73.032C156.211 70.28 155.56 67.176 155.56 63.72C155.56 60.2214 156.211 57.1067 157.512 54.376C158.835 51.624 160.701 49.4587 163.112 47.88C165.523 46.28 168.36 45.48 171.624 45.48C174.909 45.48 177.661 46.28 179.88 47.88C182.12 49.4587 183.816 51.624 184.968 54.376C186.12 57.128 186.696 60.2427 186.696 63.72C186.696 67.1547 186.12 70.2587 184.968 73.032C183.816 75.784 182.099 77.96 179.816 79.56C177.533 81.16 174.707 81.96 171.336 81.96ZM172.52 75.048C174.589 75.048 176.253 74.5787 177.512 73.64C178.792 72.68 179.72 71.3467 180.296 69.64C180.893 67.9334 181.192 65.96 181.192 63.72C181.192 61.4587 180.893 59.4854 180.296 57.8C179.72 56.0934 178.813 54.7707 177.576 53.832C176.339 52.872 174.739 52.392 172.776 52.392C170.707 52.392 169 52.904 167.656 53.928C166.312 54.9307 165.32 56.296 164.68 58.024C164.04 59.7307 163.72 61.6294 163.72 63.72C163.72 65.832 164.029 67.752 164.648 69.48C165.288 71.1867 166.259 72.5414 167.56 73.544C168.861 74.5467 170.515 75.048 172.52 75.048ZM181.192 81V56.744H180.232V34.92H188.008V81H181.192Z" fill="#1E1E1E"/>
<path d="M207.424 74.344C207.424 78.44 204.608 81.32 200.512 81.32C196.416 81.32 193.536 78.44 193.536 74.344C193.536 70.184 196.416 67.304 200.512 67.304C204.608 67.304 207.424 70.184 207.424 74.344Z" fill="#1E1E1E"/>
<path d="M312.381 81.9599C309.01 81.9599 306.183 81.1599 303.9 79.5599C301.618 77.9599 299.9 75.7839 298.748 73.0319C297.596 70.2586 297.02 67.1546 297.02 63.7199C297.02 60.2426 297.596 57.1279 298.748 54.3759C299.9 51.6239 301.586 49.4586 303.804 47.8799C306.044 46.2799 308.807 45.4799 312.092 45.4799C315.356 45.4799 318.183 46.2799 320.572 47.8799C322.983 49.4586 324.85 51.6239 326.172 54.3759C327.495 57.1066 328.157 60.2213 328.157 63.7199C328.157 67.1759 327.506 70.2799 326.204 73.0319C324.903 75.7839 323.068 77.9599 320.7 79.5599C318.332 81.1599 315.559 81.9599 312.381 81.9599ZM295.708 80.9999V34.9199H303.484V56.7439H302.524V80.9999H295.708ZM311.196 75.0479C313.202 75.0479 314.855 74.5466 316.156 73.5439C317.458 72.5413 318.418 71.1866 319.036 69.4799C319.676 67.7519 319.996 65.8319 319.996 63.7199C319.996 61.6293 319.676 59.7306 319.036 58.0239C318.396 56.2959 317.404 54.9306 316.06 53.9279C314.716 52.9039 313.01 52.3919 310.94 52.3919C308.978 52.3919 307.378 52.8719 306.14 53.8319C304.903 54.7706 303.986 56.0933 303.388 57.7999C302.812 59.4853 302.524 61.4586 302.524 63.7199C302.524 65.9599 302.812 67.9333 303.388 69.6399C303.986 71.3466 304.914 72.6799 306.172 73.6399C307.452 74.5786 309.127 75.0479 311.196 75.0479Z" fill="#1E1E1E"/>
<path d="M272.51 81.9919C269.95 81.9919 267.838 81.5653 266.174 80.7119C264.51 79.8586 263.187 78.7706 262.206 77.4479C261.225 76.1253 260.499 74.7173 260.03 73.2239C259.561 71.7306 259.251 70.3226 259.102 68.9999C258.974 67.6559 258.91 66.5679 258.91 65.7359V46.4399H266.718V63.0799C266.718 64.1466 266.793 65.3519 266.942 66.6959C267.091 68.0186 267.433 69.2986 267.966 70.5359C268.521 71.7519 269.331 72.7546 270.398 73.5439C271.486 74.3333 272.947 74.7279 274.782 74.7279C275.763 74.7279 276.734 74.5679 277.694 74.2479C278.654 73.9279 279.518 73.3839 280.286 72.6159C281.075 71.8266 281.705 70.7493 282.174 69.3839C282.643 68.0186 282.878 66.2906 282.878 64.1999L287.454 66.1519C287.454 69.0959 286.878 71.7626 285.726 74.1519C284.595 76.5413 282.921 78.4506 280.702 79.8799C278.483 81.2879 275.753 81.9919 272.51 81.9919ZM283.806 80.9999V70.2799H282.878V46.4399H290.622V80.9999H283.806Z" fill="#1E1E1E"/>
<path d="M246.093 81V33.96H253.805V81H246.093Z" fill="#1E1E1E"/>
<path d="M227.488 81.96C223.925 81.96 220.885 81.1706 218.368 79.592C215.851 77.992 213.92 75.816 212.576 73.064C211.253 70.312 210.581 67.1973 210.56 63.72C210.581 60.1786 211.275 57.0426 212.64 54.312C214.027 51.56 215.989 49.4053 218.528 47.848C221.067 46.2693 224.085 45.48 227.584 45.48C231.509 45.48 234.827 46.472 237.536 48.456C240.267 50.4186 242.048 53.1066 242.88 56.52L235.2 58.6C234.603 56.744 233.611 55.304 232.224 54.28C230.837 53.2346 229.259 52.712 227.488 52.712C225.483 52.712 223.829 53.192 222.528 54.152C221.227 55.0906 220.267 56.392 219.648 58.056C219.029 59.72 218.72 61.608 218.72 63.72C218.72 67.0053 219.456 69.6613 220.928 71.688C222.4 73.7146 224.587 74.728 227.488 74.728C229.536 74.728 231.147 74.2586 232.32 73.32C233.515 72.3813 234.411 71.0266 235.008 69.256L242.88 71.016C241.813 74.536 239.947 77.2453 237.28 79.144C234.613 81.0213 231.349 81.96 227.488 81.96Z" fill="#1E1E1E"/>
<ellipse cx="119" cy="77" rx="32" ry="5" fill="#1E1E1E"/>
</svg>
