<svg width="32" height="32" viewBox="0 0 32 32" fill="none" xmlns="http://www.w3.org/2000/svg">
<g clip-path="url(#clip0_1241_1012)">
<rect x="1" y="1" width="30" height="30" rx="15" fill="#0D0D0D"/>
<rect x="1" y="1" width="30" height="30" rx="15" stroke="#F5F5F5" stroke-width="2"/>
<circle cx="15.3" cy="12.9667" r="7.35" fill="#F5F5F5"/>
<path d="M18.3662 17.7995C17.7725 18.1499 17.1747 18.3394 16.5728 18.3681C15.9726 18.3899 15.413 18.2594 14.8942 17.9767C14.3795 17.6914 13.9524 17.2612 13.6129 16.6859C13.2964 16.1496 13.1288 15.5866 13.1101 14.997C13.0914 14.4074 13.2489 13.8421 13.5825 13.3011L13.8329 13.7832C13.3 13.7653 12.8198 13.6346 12.3923 13.3912C11.9665 13.141 11.6183 12.7867 11.3477 12.3282C11.0337 11.7962 10.8819 11.2648 10.8922 10.7339C10.9024 10.203 11.0556 9.7073 11.3516 9.24687C11.6518 8.78395 12.0755 8.39097 12.6229 8.06792C13.1703 7.74487 13.7171 7.56506 14.2632 7.52849C14.8093 7.49193 15.3173 7.59745 15.787 7.84507C16.2567 8.09269 16.6486 8.48249 16.9626 9.01449C17.2331 9.47295 17.378 9.9444 17.397 10.4288C17.4161 10.9133 17.2955 11.4014 17.0351 11.8933L16.7481 11.4504C17.3711 11.4093 17.9395 11.5404 18.4534 11.8436C18.9647 12.1424 19.3787 12.56 19.6952 13.0963C20.0347 13.6716 20.2028 14.2547 20.1995 14.8456C20.1963 15.4365 20.0379 15.9906 19.7245 16.508C19.4085 17.0211 18.9557 17.4516 18.3662 17.7995ZM17.6043 16.5084C18.0927 16.2202 18.4081 15.8503 18.5505 15.3989C18.6903 14.9432 18.6045 14.4515 18.293 13.9238C17.9816 13.3962 17.5927 13.0834 17.1261 12.9855C16.6612 12.8808 16.1825 12.9738 15.6899 13.2646C15.1972 13.5553 14.8823 13.9307 14.745 14.3908C14.6094 14.844 14.6973 15.3345 15.0088 15.8621C15.3202 16.3898 15.7091 16.7026 16.1757 16.8005C16.6397 16.894 17.1159 16.7967 17.6043 16.5084ZM14.9241 11.967C15.3409 11.721 15.6152 11.4163 15.747 11.0527C15.8804 10.6824 15.8182 10.2788 15.5604 9.84199C15.3026 9.40515 14.9794 9.15564 14.5907 9.09345C14.2037 9.02445 13.8017 9.11296 13.3849 9.35897C12.968 9.60499 12.6942 9.91532 12.5633 10.29C12.4298 10.6603 12.492 11.0639 12.7498 11.5007C13.0077 11.9376 13.3309 12.1871 13.7196 12.2493C14.1057 12.3071 14.5072 12.2131 14.9241 11.967Z" fill="#1E1E1E"/>
</g>
<defs>
<clipPath id="clip0_1241_1012">
<rect width="32" height="32" fill="white"/>
</clipPath>
</defs>
</svg>
