<svg width="32" height="32" viewBox="0 0 32 32" fill="none" xmlns="http://www.w3.org/2000/svg">
<g clip-path="url(#clip0_1241_1012)">
<rect width="32" height="32" fill="#F5F5F5"/>
<rect width="32" height="32" rx="16" fill="#0D0D0D"/>
<circle cx="15.2" cy="12.5333" r="8.4" fill="#FCF6EA"/>
<path d="M18.7042 18.0566C18.0257 18.4571 17.3425 18.6737 16.6546 18.7064C15.9686 18.7314 15.3291 18.5823 14.7361 18.2591C14.1479 17.9331 13.6599 17.4414 13.2719 16.784C12.9101 16.171 12.7186 15.5276 12.6972 14.8538C12.6758 14.1799 12.8558 13.5339 13.2371 12.9157L13.5232 13.4666C12.9142 13.4461 12.3655 13.2968 11.8769 13.0186C11.3902 12.7327 10.9923 12.3277 10.683 11.8038C10.3242 11.1958 10.1507 10.5884 10.1624 9.98164C10.1742 9.37489 10.3492 8.80841 10.6874 8.2822C11.0305 7.75315 11.5148 7.30403 12.1404 6.93483C12.766 6.56563 13.3909 6.36014 14.015 6.31835C14.6392 6.27656 15.2197 6.39716 15.7565 6.68015C16.2934 6.96314 16.7412 7.40863 17.1 8.01663C17.4092 8.54059 17.5747 9.07938 17.5965 9.63302C17.6183 10.1867 17.4804 10.7446 17.1829 11.3067L16.8549 10.8005C17.5669 10.7536 18.2165 10.9033 18.8038 11.2498C19.3882 11.5914 19.8612 12.0687 20.223 12.6816C20.611 13.339 20.8031 14.0054 20.7994 14.6807C20.7957 15.3561 20.6147 15.9894 20.2565 16.5807C19.8953 17.1671 19.3779 17.659 18.7042 18.0566ZM17.8334 16.5811C18.3916 16.2517 18.7521 15.829 18.9147 15.3131C19.0745 14.7923 18.9765 14.2304 18.6205 13.6273C18.2646 13.0243 17.8201 12.6668 17.2869 12.5549C16.7556 12.4353 16.2085 12.5416 15.6455 12.8739C15.0825 13.2062 14.7225 13.6352 14.5657 14.161C14.4107 14.6789 14.5112 15.2395 14.8671 15.8425C15.223 16.4456 15.6675 16.803 16.2007 16.9149C16.731 17.0218 17.2752 16.9106 17.8334 16.5811ZM14.7703 11.391C15.2467 11.1098 15.5602 10.7615 15.7108 10.3461C15.8633 9.92283 15.7922 9.46159 15.4976 8.96234C15.2029 8.4631 14.8335 8.17794 14.3893 8.10687C13.947 8.02801 13.4876 8.12917 13.0112 8.41032C12.5348 8.69148 12.2218 9.04615 12.0722 9.47432C11.9198 9.89755 11.9908 10.3588 12.2855 10.858C12.5801 11.3573 12.9495 11.6424 13.3938 11.7135C13.8351 11.7796 14.2939 11.6721 14.7703 11.391Z" fill="#1E1E1E"/>
</g>
<defs>
<clipPath id="clip0_1241_1012">
<rect width="32" height="32" fill="white"/>
</clipPath>
</defs>
</svg>
